<?xml version="1.0" encoding="utf-8"?>
<svg version="1.1" id="icon-twitter" xmlns="http://www.w3.org/2000/svg" xmlns:xlink="http://www.w3.org/1999/xlink" x="0px" y="0px"
	 width="20px" height="20px" viewBox="0 0 20 20" style="enable-background:new 0 0 20 20;" xml:space="preserve">
<style type="text/css">
	.st0{fill:#1C2624;}
</style>
<path class="st0" d="M18.9,0H1.1C0.5,0,0,0.5,0,1.1v17.8C0,19.5,0.5,20,1.1,20h17.8c0.6,0,1.1-0.5,1.1-1.1V1.1C20,0.5,19.5,0,18.9,0
	z M16.6,7c0,0.1,0,0.3,0,0.4c0,3.9-3,8.4-8.4,8.4c-1.7,0-3.2-0.5-4.5-1.3c0.2,0,0.5,0,0.7,0c1.4,0,2.7-0.5,3.7-1.3
	c-1.3,0-2.4-0.9-2.8-2.1c0.2,0,0.4,0.1,0.6,0.1c0.3,0,0.5,0,0.8-0.1c-1.4-0.3-2.4-1.5-2.4-2.9c0,0,0,0,0,0c0.4,0.2,0.9,0.4,1.3,0.4
	C4.8,8.1,4.3,7.2,4.3,6.2c0-0.5,0.1-1.1,0.4-1.5c1.5,1.8,3.6,3,6.1,3.1c-0.1-0.2-0.1-0.4-0.1-0.7c0-1.6,1.3-3,3-3
	c0.9,0,1.6,0.4,2.2,0.9c0.7-0.1,1.3-0.4,1.9-0.7C17.5,5,17,5.6,16.4,6c0.6-0.1,1.2-0.2,1.7-0.5C17.7,6.1,17.2,6.6,16.6,7z"/>
</svg>
