<svg enable-background="new 0 0 20 20" height="20" viewBox="0 0 20 20" width="20" xmlns="http://www.w3.org/2000/svg"><path d="m18.9 0h-17.8c-.6 0-1.1.5-1.1 1.1v17.8c0 .6.5 1.1 1.1 1.1h17.8c.6 0 1.1-.5 1.1-1.1v-17.8c0-.6-.5-1.1-1.1-1.1zm-2.3 7v.4c0 3.9-3 8.4-8.4 8.4-1.7 0-3.2-.5-4.5-1.3h.7c1.4 0 2.7-.5 3.7-1.3-1.3 0-2.4-.9-2.8-2.1.2 0 .4.1.6.1.3 0 .5 0 .8-.1-1.4-.3-2.4-1.5-2.4-2.9.4.2.9.4 1.3.4-.8-.5-1.3-1.4-1.3-2.4 0-.5.1-1.1.4-1.5 1.5 1.8 3.6 3 6.1 3.1-.1-.2-.1-.4-.1-.7 0-1.6 1.3-3 3-3 .9 0 1.6.4 2.2.9.7-.1 1.3-.4 1.9-.7-.3.7-.8 1.3-1.4 1.7.6-.1 1.2-.2 1.7-.5-.4.6-.9 1.1-1.5 1.5z" fill="#1c2624"/></svg>