<svg id="e3efe41f-e8f3-4d6f-8d8e-2242ed1bba02" data-name="Layer 1" xmlns="http://www.w3.org/2000/svg" viewBox="0 0 400 130"><defs><style>.b7245f7c-9524-4529-81ab-c5809a20e994{fill:#3f8b7b;}.fe1d6647-90cf-488a-8636-b332ffaf5d52{fill:#ec372f;}.fe1b0c98-d910-4b83-848a-245995d3d58f{fill:#fff;}</style></defs><title>urbanraum-retten</title><rect class="b7245f7c-9524-4529-81ab-c5809a20e994" x="3.9088" y="21.5849" width="392.9772" height="87.1891" transform="translate(-5.7749 21.5852) rotate(-6.0781)"/><rect class="fe1d6647-90cf-488a-8636-b332ffaf5d52" x="14.6374" y="21.5849" width="371.52" height="87.1891"/><path class="fe1b0c98-d910-4b83-848a-245995d3d58f" d="M38.24,64.0988l1.0956-3.98H36.78a.4839.4839,0,0,1-.5477-.5474v-.84c0-.3649.1824-.5109.5477-.5109h3.1035l.9856-3.5052a.6642.6642,0,0,1,.6573-.5474h1.0951c.4019,0,.4748.2555.4019.5474l-.9861,3.5052h5.55l.9861-3.5052a.6641.6641,0,0,1,.6573-.5474h1.0951c.4014,0,.4748.2555.4014.5474l-.9856,3.5052h2.2272c.3649,0,.5477.146.5477.5109v.84a.484.484,0,0,1-.5477.5474h-2.775l-1.0952,3.98h2.3732c.3653,0,.5113.1464.5113.5113v.8032c0,.365-.146.5478-.5113.5478H47.55l-.9491,3.4319c-.11.3653-.2555.5842-.6208.5842H44.8486c-.3653,0-.5112-.2189-.4018-.5842l.9861-3.4319H39.8464l-.9491,3.4319c-.11.3653-.292.5842-.6573.5842H37.1449c-.365,0-.5113-.2189-.4019-.5842l.95-3.4319H35.2465c-.3653,0-.5113-.1828-.5113-.5478V64.61c0-.3649.146-.5113.5113-.5113Zm2.1177,0h5.5861l1.1321-3.98H41.49Z"/><path class="fe1b0c98-d910-4b83-848a-245995d3d58f" d="M61.5976,68.5168c0,2.1177,1.424,3.5052,5.2576,3.5052,3.9066,0,5.3671-1.3875,5.3671-3.5052V49.6773c0-.3653.146-.5477.5113-.5477h1.5335c.4014,0,.5109.1824.5109.5477V68.9186c0,2.9205-1.8619,5.33-7.9228,5.33-5.9879,0-7.85-2.41-7.85-5.33V49.6773c0-.3653.1459-.5477.5113-.5477h1.57c.3649,0,.5109.1824.5109.5477Z"/><path class="fe1b0c98-d910-4b83-848a-245995d3d58f" d="M90.15,56.1761v1.205a.5106.5106,0,0,1-.5839.5474,10.6979,10.6979,0,0,0-5.9513,2.4466v13.034c0,.3653-.146.5477-.5113.5477H81.6433c-.4014,0-.5474-.1824-.5474-.5477V56.4684c0-.3653.146-.5477.5474-.5477h1.3145c.4018,0,.5113.1824.5478.5477l.1095,1.7889a9.26,9.26,0,0,1,5.9513-2.629A.5109.5109,0,0,1,90.15,56.1761Z"/><path class="fe1b0c98-d910-4b83-848a-245995d3d58f" d="M95.6218,73.9568c-.4014,0-.5473-.1824-.5473-.5477V48.9836c0-.3653.1459-.5478.5473-.5478h1.4605c.3654,0,.5113.1825.5113.5478v8.7989A9.99,9.99,0,0,1,103.8,55.6283c3.4684,0,5.0383,1.8988,5.0383,4.6734v9.2737c0,2.775-1.57,4.6734-5.0383,4.6734a9.7009,9.7009,0,0,1-6.2433-2.19l-.073,1.3506c-.0364.3653-.1459.5477-.5477.5477ZM106.32,60.667c0-1.497-.84-2.7385-3.2129-2.7385A8.9178,8.9178,0,0,0,97.5936,60.01v9.8945a9.1606,9.1606,0,0,0,5.5131,2.0444c2.3732,0,3.2129-1.2411,3.2129-2.7381Z"/><path class="fe1b0c98-d910-4b83-848a-245995d3d58f" d="M114.6894,60.2652c0-2.7381,1.643-4.6369,6.5722-4.6369,5.0018,0,6.5717,1.8988,6.5717,4.6369V73.4091c0,.3653-.146.5477-.5109.5477h-1.3145c-.4018,0-.5113-.1824-.5478-.5477l-.0729-1.3141a9.62,9.62,0,0,1-6.0244,2.1538c-3.3953,0-5.0383-1.9349-5.0383-4.3081V68.1154c0-2.3736,1.57-4.3085,4.7464-4.3085h6.28V60.521c0-1.6429-.8762-2.8114-4.1256-2.8114s-4.1625,1.0955-4.1625,2.7385v.4378c0,.4019-.146.5843-.5474.5843h-1.3145c-.3649,0-.5113-.1824-.5113-.5843Zm10.6613,9.8215V65.8152h-5.805c-1.9718,0-2.775,1.0221-2.775,2.6286v1.1681c0,1.6064.9856,2.52,3.1764,2.52A8.854,8.854,0,0,0,125.3507,70.0867Z"/><path class="fe1b0c98-d910-4b83-848a-245995d3d58f" d="M136.2,56.4684l.073,1.3871a9.5721,9.5721,0,0,1,6.2433-2.2272c3.3953,0,5.0383,1.8988,5.0383,4.4909v13.29c0,.3653-.146.5477-.5109.5477h-1.46a.484.484,0,0,1-.5478-.5477V60.667c0-1.6429-.8762-2.775-3.2128-2.775a9.0332,9.0332,0,0,0-5.5131,2.0448V73.4091c0,.3653-.146.5477-.5113.5477h-1.46c-.4014,0-.5474-.1824-.5474-.5477V56.4684c0-.3653.146-.5477.5474-.5477h1.3145C136.0538,55.9207,136.1633,56.1031,136.2,56.4684Z"/><path class="fe1b0c98-d910-4b83-848a-245995d3d58f" d="M162.5765,56.1761v1.205a.5106.5106,0,0,1-.5839.5474,10.6979,10.6979,0,0,0-5.9513,2.4466v13.034c0,.3653-.146.5477-.5113.5477h-1.46c-.4014,0-.5474-.1824-.5474-.5477V56.4684c0-.3653.146-.5477.5474-.5477h1.3145c.4018,0,.5113.1824.5478.5477l.1095,1.7889a9.26,9.26,0,0,1,5.9513-2.629A.5109.5109,0,0,1,162.5765,56.1761Z"/><path class="fe1b0c98-d910-4b83-848a-245995d3d58f" d="M167.1681,60.2652c0-2.7381,1.6429-4.6369,6.5721-4.6369,5.0018,0,6.5717,1.8988,6.5717,4.6369V73.4091c0,.3653-.1459.5477-.5108.5477h-1.3145c-.4019,0-.5113-.1824-.5478-.5477l-.073-1.3141a9.62,9.62,0,0,1-6.0244,2.1538c-3.3953,0-5.0382-1.9349-5.0382-4.3081V68.1154c0-2.3736,1.57-4.3085,4.7463-4.3085h6.28V60.521c0-1.6429-.8762-2.8114-4.1256-2.8114s-4.1625,1.0955-4.1625,2.7385v.4378c0,.4019-.1459.5843-.5473.5843h-1.3145c-.365,0-.5113-.1824-.5113-.5843Zm10.6612,9.8215V65.8152h-5.805c-1.9718,0-2.775,1.0221-2.775,2.6286v1.1681c0,1.6064.9857,2.52,3.1764,2.52A8.8551,8.8551,0,0,0,177.8293,70.0867Z"/><path class="fe1b0c98-d910-4b83-848a-245995d3d58f" d="M197.2,72.095a8.9827,8.9827,0,0,1-5.9879,2.1538c-3.3953,0-5.0751-1.8619-5.0751-4.454V56.4684c0-.3653.1463-.5477.5112-.5477h1.497c.3649,0,.5113.1824.5113.5477V69.2105c0,1.6794.9127,2.7746,3.2494,2.7746a8.1863,8.1863,0,0,0,5.2576-2.0079V56.4684c0-.3653.146-.5477.5109-.5477h1.497c.3653,0,.5113.1824.5113.5477V73.4091c0,.4018-.146.5477-.5113.5477H197.82c-.4014,0-.5109-.1459-.5474-.5477Z"/><path class="fe1b0c98-d910-4b83-848a-245995d3d58f" d="M207.6181,55.9207c.4018,0,.5478.1824.5478.5477l.0365,1.3506a9.1147,9.1147,0,0,1,6.0608-2.1907c2.4462,0,3.98.9861,4.6369,2.4831a9.2967,9.2967,0,0,1,6.3893-2.4831c3.3953,0,5.0747,1.8988,5.0747,4.4909v13.29a.4838.4838,0,0,1-.5473.5477h-1.46a.484.484,0,0,1-.5478-.5477V60.667c0-1.6429-.8762-2.775-3.2129-2.775A7.7621,7.7621,0,0,0,219.265,60.01a3.7574,3.7574,0,0,1,.0365.6573V73.4091c0,.3653-.146.5477-.5113.5477h-1.46a.484.484,0,0,1-.5477-.5477V60.667c0-1.6429-.8762-2.775-3.2129-2.775a8.1085,8.1085,0,0,0-5.2942,2.0448V73.4091c0,.3653-.1459.5477-.5112.5477h-1.4605c-.4014,0-.5474-.1824-.5474-.5477V56.4684c0-.3653.146-.5477.5474-.5477Z"/><path class="fe1b0c98-d910-4b83-848a-245995d3d58f" d="M239.2881,63.8434v9.5657c0,.3653-.11.5477-.5113.5477h-1.5335c-.3653,0-.5113-.1824-.5113-.5477V49.6773c0-.3653.146-.5477.4748-.5477h7.229c6.0609,0,7.9227,2.41,7.9227,5.3306v4.0891c0,2.2637-1.1316,4.2354-4.5269,4.9657l4.7463,9.8941c.146.3288-.11.5477-.5113.5477h-1.5334c-.4019,0-.4748-.2189-.6573-.5477l-4.5274-9.5657h-6.06Zm0-12.4866V61.6527h5.1477c3.9066,0,5.3306-1.3875,5.3306-3.5413v-3.25c0-2.1173-1.424-3.5048-5.3306-3.5048Z"/><path class="fe1b0c98-d910-4b83-848a-245995d3d58f" d="M259.3451,73.9568c-.3288,0-.4748-.1824-.4748-.5477V49.6773c0-.3653.146-.5477.5113-.5477h12.45c.3649,0,.5478.1459.5478.5477V50.809c0,.4018-.1829.5478-.5478.5478H261.4263v8.507h9.7482c.4018,0,.5477.1459.5477.5478V61.47c0,.4014-.1459.5478-.5477.5478h-9.7482V71.73H272.27c.3653,0,.5478.146.5478.5113v1.1682c0,.4018-.1825.5477-.5478.5477Z"/><path class="fe1b0c98-d910-4b83-848a-245995d3d58f" d="M293.1554,49.13c.3654,0,.5478.1459.5478.5477V50.809c0,.4018-.1824.5478-.5478.5478h-6.28V73.4091c0,.3653-.1459.5477-.5112.5477h-1.57c-.4014,0-.5474-.1824-.5474-.5477V51.3568h-6.28c-.4018,0-.5478-.146-.5478-.5478V49.6773c0-.4018.146-.5477.5478-.5477Z"/><path class="fe1b0c98-d910-4b83-848a-245995d3d58f" d="M313.7561,49.13c.3653,0,.5478.1459.5478.5477V50.809c0,.4018-.1825.5478-.5478.5478h-6.28V73.4091c0,.3653-.146.5477-.5113.5477h-1.57c-.4014,0-.5473-.1824-.5473-.5477V51.3568h-6.28c-.4019,0-.5478-.146-.5478-.5478V49.6773c0-.4018.1459-.5477.5478-.5477Z"/><path class="fe1b0c98-d910-4b83-848a-245995d3d58f" d="M320.2934,73.9568c-.3288,0-.4748-.1824-.4748-.5477V49.6773c0-.3653.146-.5477.5113-.5477h12.45c.3649,0,.5478.1459.5478.5477V50.809c0,.4018-.1829.5478-.5478.5478H322.3746v8.507h9.7482c.4018,0,.5478.1459.5478.5478V61.47c0,.4014-.146.5478-.5478.5478h-9.7482V71.73h10.8433c.3653,0,.5478.146.5478.5113v1.1682c0,.4018-.1825.5477-.5478.5477Z"/><path class="fe1b0c98-d910-4b83-848a-245995d3d58f" d="M355.5638,73.4091c0,.3653-.11.5477-.5109.5477h-1.3875a.5179.5179,0,0,1-.5112-.2554l-9.6752-17.16a22.7484,22.7484,0,0,1-1.2415-2.3732V73.4091c0,.3653-.146.5477-.5109.5477h-1.3875c-.4018,0-.5478-.1824-.5478-.5477V49.6773c0-.3653.146-.5477.5478-.5477h1.3875c.2554,0,.3649.0729.4379.2189l9.8945,17.4158c.2919.5109,1.0952,2.1908,1.0952,2.1908V49.6773c0-.3653.1463-.5477.5112-.5477h1.3875c.4014,0,.5109.1824.5109.5477Z"/></svg>